<?xml version="1.0" standalone="no"?>
<!DOCTYPE svg PUBLIC "-//W3C//DTD SVG 20010904//EN"
 "http://www.w3.org/TR/2001/REC-SVG-20010904/DTD/svg10.dtd">
<svg version="1.0" xmlns="http://www.w3.org/2000/svg"
 width="1299.000000pt" height="1299.000000pt" viewBox="0 0 1299.000000 1299.000000"
 preserveAspectRatio="xMidYMid meet">
<metadata>
Created by potrace 1.11, written by Peter Selinger 2001-2013
</metadata>
<g transform="translate(0.000000,1299.000000) scale(0.100000,-0.100000)"
fill="#000000" stroke="none">
<path d="M6350 12165 l0 -245 60 0 60 0 0 71 c0 39 -4 79 -10 89 -9 17 -4 18
64 17 90 -1 131 20 162 81 26 49 24 116 -3 162 -30 52 -78 68 -213 69 l-120 2
0 -246z m213 134 c39 -48 12 -113 -53 -124 -45 -8 -66 0 -51 19 6 7 9 40 7 74
-2 34 -2 63 1 65 10 11 80 -14 96 -34z"/>
<path d="M6776 12166 c1 -133 2 -243 3 -246 0 -3 27 -6 59 -6 31 -1 99 -4 150
-7 l92 -5 0 39 c0 30 -4 39 -17 41 -10 1 -25 2 -33 4 -8 1 -49 2 -89 3 -58 1
-72 4 -63 13 15 15 16 94 2 103 -6 4 -8 11 -4 16 3 5 9 7 13 5 4 -3 44 -8 88
-11 77 -6 80 -6 86 15 3 12 2 32 -3 44 -7 20 -15 22 -91 23 l-84 1 3 50 c2 29
-1 53 -7 57 -6 3 -9 11 -5 16 3 5 9 7 13 5 4 -3 46 -8 94 -11 l87 -6 0 41 c0
22 -3 40 -7 40 -5 1 -64 3 -133 6 -69 3 -132 6 -140 8 -14 3 -16 -26 -14 -238z"/>
<path d="M5820 12391 c-72 -18 -121 -74 -122 -141 -1 -64 29 -99 124 -145 69
-33 84 -44 86 -66 8 -65 -89 -84 -148 -29 -48 45 -63 37 -65 -33 -2 -55 0 -59
24 -69 14 -6 60 -11 101 -11 130 -1 205 58 205 160 0 43 -5 57 -29 82 -15 16
-54 39 -85 51 -71 27 -91 42 -97 73 -3 19 2 30 18 41 35 25 72 20 108 -14 34
-31 59 -39 61 -17 8 112 4 118 -87 122 -38 1 -80 -1 -94 -4z"/>
<path d="M7155 12139 l0 -242 30 -4 c17 -1 42 -5 58 -8 24 -4 27 -1 28 23 3
64 0 136 -6 159 -6 24 -4 25 22 18 15 -3 29 -7 30 -8 2 -3 61 -134 77 -172 8
-19 21 -35 28 -35 7 0 37 -3 66 -6 28 -4 52 -3 52 0 0 6 -49 101 -103 198 -11
21 -19 39 -16 40 2 2 18 10 34 18 61 31 64 132 7 192 -37 40 -77 51 -223 63
l-84 7 0 -243z m153 147 c59 -16 81 -37 82 -77 0 -45 -21 -61 -81 -62 -48 -1
-54 1 -51 18 6 39 5 81 -2 108 -3 15 -5 27 -4 27 2 0 27 -7 56 -14z"/>
<path d="M5425 12354 c-6 -1 -22 -5 -36 -8 -21 -5 -28 -13 -32 -38 -3 -18 -30
-127 -61 -243 -31 -115 -56 -211 -56 -213 0 -8 93 3 106 12 8 6 15 30 16 54
l1 42 48 0 c26 0 59 4 73 10 24 9 26 8 26 -20 0 -36 17 -83 28 -76 5 3 28 6
51 7 23 2 44 6 46 9 2 3 0 22 -4 41 -5 18 -27 115 -50 214 -23 99 -44 188 -47
198 -5 14 -15 17 -52 16 -26 -1 -52 -3 -57 -5z m26 -61 c1 -5 3 -17 4 -28 10
-92 18 -139 30 -178 14 -47 12 -59 -9 -51 -7 3 -31 1 -54 -5 -45 -10 -48 -7
-31 36 6 15 13 37 14 48 17 111 25 162 25 173 0 13 19 17 21 5z"/>
<path d="M5215 12329 c-22 -4 -65 -10 -95 -14 -30 -4 -89 -12 -130 -18 l-74
-12 -4 -44 -4 -44 39 6 c21 4 53 10 72 13 31 7 33 6 22 -14 -7 -13 -11 -88
-11 -201 l0 -181 29 0 c16 0 42 3 58 6 l29 6 -1 186 c-1 103 -3 194 -6 202 -3
10 4 15 21 16 77 5 100 9 103 19 4 11 1 75 -5 79 -1 1 -21 -1 -43 -5z"/>
<path d="M7600 12096 c0 -210 3 -246 15 -246 8 0 18 -1 23 -2 4 -1 23 -5 43
-8 l36 -7 0 86 c0 47 -3 93 -8 102 -12 24 -4 27 44 18 23 -5 63 -11 88 -15
l46 -6 1 40 c2 46 -1 47 -114 58 -38 4 -70 8 -72 9 -1 1 2 14 9 27 8 18 8 36
1 62 -9 33 -9 36 6 32 27 -8 104 -19 142 -20 33 -1 34 0 35 36 0 37 0 37 -50
43 -27 4 -64 9 -81 11 -17 3 -46 6 -65 8 -19 2 -49 7 -66 10 l-33 8 0 -246z"/>
<path d="M7920 12290 c0 -5 102 -376 131 -477 9 -28 14 -32 60 -38 28 -4 54
-3 59 1 4 5 22 56 40 114 17 58 35 116 40 130 27 75 61 202 56 208 -4 3 -28 8
-55 12 l-48 6 -31 -135 c-18 -75 -35 -161 -38 -191 -9 -83 -21 -84 -29 -4 -5
47 -14 113 -20 144 -2 8 -13 56 -25 105 -13 50 -23 95 -23 101 0 12 -117 36
-117 24z"/>
<path d="M4705 12249 c-22 -4 -72 -12 -111 -18 l-71 -12 1 -242 c1 -270 -6
-247 71 -234 17 3 34 6 39 6 5 1 7 48 4 105 l-5 105 25 -2 c20 -2 32 -18 69
-90 l45 -89 55 7 c88 10 87 7 24 108 -67 107 -75 127 -57 127 15 0 48 35 66
69 15 30 5 102 -19 130 -22 25 -84 39 -136 30z m37 -107 c19 -16 18 -62 -1
-86 -11 -13 -92 -46 -112 -46 -4 0 -5 25 -2 55 4 37 2 60 -7 70 -14 17 -6 22
45 27 36 4 55 0 77 -20z"/>
<path d="M8359 12183 c0 -21 -1 -130 -1 -243 l-1 -205 44 -11 c38 -9 45 -9 50
5 12 33 0 300 -17 354 -3 11 0 17 10 17 9 0 18 -12 21 -27 20 -96 33 -132 87
-254 66 -148 57 -139 151 -155 l27 -5 0 245 c0 190 -3 246 -12 246 -7 1 -30 3
-50 6 l-37 6 4 -129 c2 -70 7 -154 10 -185 5 -49 4 -58 -10 -58 -9 0 -15 6
-14 13 9 44 -35 187 -95 308 l-41 84 -55 12 c-30 7 -58 12 -62 13 -5 0 -8 -17
-9 -37z"/>
<path d="M4396 12192 c-2 -1 -16 -5 -32 -8 -38 -6 -174 -34 -196 -41 -17 -4
-18 -25 -18 -249 0 -229 1 -245 18 -240 14 5 106 25 187 42 11 2 34 7 50 11
17 4 33 6 36 5 3 0 6 18 6 42 l0 43 -81 -17 c-45 -10 -89 -22 -100 -26 -16 -6
-17 -4 -10 17 10 31 10 68 0 97 -6 19 -4 22 18 23 14 1 29 2 34 3 4 1 28 5 54
10 59 9 76 25 70 65 -5 37 -6 37 -101 11 -40 -12 -75 -19 -78 -17 -2 2 1 16 6
30 10 26 9 46 -4 80 -6 13 -2 17 16 18 13 0 31 2 39 4 8 1 41 8 73 14 l57 12
0 39 c0 33 -3 39 -20 37 -12 -1 -22 -3 -24 -5z"/>
<path d="M8834 11878 l1 -243 65 -17 c108 -30 185 -34 217 -13 57 37 76 90 75
203 -2 116 -52 206 -140 251 -29 14 -193 61 -215 61 -2 0 -3 -109 -3 -242z
m193 100 c32 -26 41 -63 39 -166 -1 -91 -3 -105 -21 -118 -27 -20 -112 -14
-105 7 9 26 9 272 0 289 -5 10 -7 20 -3 23 6 7 69 -17 90 -35z"/>
<path d="M3870 12071 c-36 -9 -68 -18 -73 -19 -60 -13 -57 -8 -57 -96 -1 -44
-2 -154 -3 -243 l-2 -162 25 6 c118 28 181 46 217 64 114 55 129 242 20 242
-45 0 -46 7 -7 29 67 38 91 128 45 173 -29 30 -71 32 -165 6z m74 -93 c21 -35
-22 -96 -79 -112 -19 -5 -20 -1 -20 59 0 64 0 64 30 68 46 6 57 4 69 -15z m11
-199 c4 -6 4 -25 1 -44 -8 -38 -40 -64 -94 -72 -34 -6 -36 -5 -23 11 10 11 12
32 8 71 l-5 54 36 3 c39 3 66 -5 77 -23z"/>
<path d="M9259 12009 c-1 -20 -1 -430 0 -456 1 -20 14 -29 58 -37 19 -4 199
-54 221 -61 8 -3 12 9 12 39 l0 43 -94 23 -95 23 6 48 c4 32 1 54 -7 64 -12
14 -6 20 15 15 6 -2 44 -13 86 -25 l76 -22 -1 41 c-2 38 -5 42 -42 54 -21 8
-52 16 -69 19 -16 3 -37 7 -45 8 -8 2 -19 4 -23 4 -4 1 -3 10 3 20 5 11 10 32
10 46 0 14 -5 35 -10 46 -8 15 -7 19 4 19 8 0 17 -4 20 -9 6 -9 145 -46 150
-40 12 14 14 48 4 61 -8 10 -64 30 -130 47 -64 17 -124 34 -132 37 -10 4 -16
1 -17 -7z"/>
<path d="M3580 11996 l-45 -12 -3 -243 -2 -243 36 6 c20 4 46 12 58 18 23 10
23 10 23 249 1 172 -3 239 -11 238 -6 -1 -31 -6 -56 -13z"/>
<path d="M9580 11887 c0 -42 1 -43 45 -55 25 -7 55 -12 66 -12 16 0 19 -4 14
-17 -5 -10 -9 -101 -10 -202 l-1 -184 30 -12 c17 -7 43 -15 57 -18 l26 -7 -2
188 c-1 103 -5 196 -10 206 -7 17 -6 18 11 12 48 -20 105 -38 109 -35 13 14 7
89 -7 89 -12 0 -40 8 -227 65 -46 14 -88 25 -93 25 -4 0 -8 -19 -8 -43z"/>
<path d="M3238 11896 c-20 -6 -40 -14 -44 -18 -5 -6 -8 -275 -5 -451 l1 -34
135 40 c139 42 144 46 137 98 l-4 26 -71 -23 c-40 -12 -80 -26 -91 -30 -16 -6
-17 -4 -7 14 16 31 15 392 -1 391 -7 -1 -30 -6 -50 -13z"/>
<path d="M6327 11593 c-1 0 -83 -4 -182 -7 -99 -4 -205 -9 -235 -11 -30 -3
-91 -7 -135 -10 -44 -3 -100 -7 -125 -10 -25 -3 -70 -7 -100 -10 -83 -8 -162
-16 -190 -20 -14 -2 -50 -7 -80 -11 -30 -3 -64 -7 -75 -9 -136 -19 -185 -26
-206 -30 -13 -3 -44 -8 -69 -11 -36 -5 -305 -54 -430 -78 -56 -11 -181 -39
-278 -61 -56 -14 -113 -27 -125 -29 -12 -2 -101 -25 -197 -51 -96 -25 -182
-48 -190 -50 -168 -43 -722 -221 -782 -251 -63 -32 -126 -97 -157 -164 l-26
-55 0 -3990 0 -3990 31 -65 c47 -99 141 -181 354 -307 445 -263 1025 -505
1682 -702 146 -43 483 -122 668 -156 186 -34 213 -39 305 -50 22 -3 56 -7 75
-10 75 -10 207 -23 320 -31 107 -8 568 -8 635 0 28 3 83 8 124 11 41 4 88 8
105 11 17 2 56 6 86 9 30 3 78 10 105 15 28 5 68 11 90 14 22 3 65 10 95 15
54 10 106 20 145 27 642 117 1576 450 2140 764 344 191 433 262 494 390 l36
75 0 3980 0 3980 -28 60 c-53 113 -122 162 -312 220 -238 72 -392 118 -490
145 -55 15 -145 39 -200 54 -55 15 -107 29 -115 31 -8 2 -53 13 -100 25 -95
24 -79 21 -360 83 -113 26 -218 49 -235 51 -16 3 -41 8 -55 11 -147 29 -127
25 -330 60 -80 14 -167 27 -195 30 -27 3 -57 8 -65 10 -8 2 -33 6 -55 9 -129
17 -206 26 -255 31 -30 3 -71 7 -90 10 -36 5 -85 10 -230 20 -47 4 -100 8
-117 10 -63 8 -670 24 -676 18z"/>
<path d="M2814 11571 c-30 -18 -64 -74 -64 -106 0 -22 27 -72 42 -77 27 -11
84 3 106 26 93 92 23 222 -84 157z"/>
<path d="M10047 11568 c-45 -40 -36 -109 19 -158 57 -50 127 -33 139 33 18 94
-94 183 -158 125z"/>
<path d="M3806 1429 c-64 -50 2 -187 99 -205 18 -3 33 3 51 22 22 21 26 32 21
65 -13 95 -112 164 -171 118z"/>
<path d="M9080 1442 c-104 -45 -137 -189 -51 -217 77 -24 186 133 133 193 -19
22 -59 33 -82 24z"/>
<path d="M8415 1414 c-44 -13 -101 -30 -128 -38 -26 -7 -51 -16 -54 -20 -8 -8
-11 -506 -3 -506 3 0 50 14 105 31 55 16 110 32 122 35 64 13 71 20 68 69 -1
25 -4 47 -6 49 -2 2 -30 -4 -61 -14 -113 -35 -108 -35 -104 7 2 21 0 45 -5 54
-5 10 -4 16 4 16 17 0 96 22 130 35 24 9 27 15 27 59 0 56 -1 57 -84 29 -76
-26 -76 -26 -73 13 2 17 0 40 -5 50 -7 13 -4 17 9 17 10 0 50 9 89 21 l72 21
-1 49 c0 29 -5 49 -11 48 -6 0 -47 -11 -91 -25z"/>
<path d="M4526 1410 c-43 -13 -65 -38 -81 -93 -31 -104 -13 -265 38 -342 40
-62 130 -106 202 -99 77 7 116 81 116 217 -1 171 -62 276 -183 312 -57 17 -52
16 -92 5z m126 -148 c14 -36 15 -232 1 -256 -14 -26 -38 -28 -57 -7 -26 29
-33 93 -27 248 2 66 58 76 83 15z"/>
<path d="M4920 1057 l-1 -254 45 -12 c25 -6 49 -11 54 -11 6 0 9 61 8 150 0
83 2 150 7 150 4 0 7 -6 8 -12 0 -7 2 -20 4 -28 5 -26 35 -164 40 -185 3 -11
8 -35 11 -53 7 -36 11 -40 55 -52 26 -8 31 -6 39 16 5 13 12 35 14 47 2 12 15
63 29 112 14 50 28 99 30 110 3 11 5 -34 6 -100 0 -232 -3 -212 30 -218 16 -3
40 -9 55 -13 l26 -6 0 255 0 255 -80 19 -80 20 -11 -41 c-5 -23 -14 -54 -19
-71 -15 -48 -31 -150 -32 -200 -1 -62 -8 -50 -14 22 -5 73 -11 110 -25 170 -6
27 -13 61 -16 77 -11 64 -18 72 -80 85 -32 6 -68 14 -80 17 l-22 6 -1 -255z
m357 11 c-3 -8 -6 -5 -6 6 -1 11 2 17 5 13 3 -3 4 -12 1 -19z"/>
<path d="M7947 1292 c-56 -18 -120 -76 -142 -129 -23 -55 -30 -98 -29 -188 2
-92 23 -146 71 -182 40 -29 121 -27 183 6 75 39 80 46 80 123 0 68 0 69 -22
57 -13 -7 -24 -10 -26 -8 -1 2 -11 -11 -22 -29 -22 -36 -60 -58 -85 -48 -29
11 -44 66 -40 149 3 65 7 83 29 111 34 45 59 50 96 19 49 -40 65 -29 68 49 l3
67 -38 9 c-53 13 -71 12 -126 -6z"/>
<path d="M7646 1220 c-21 -4 -42 -13 -46 -20 -8 -12 -46 -198 -57 -275 -3 -22
-9 -49 -14 -60 -7 -18 -8 -17 -7 5 1 34 -55 290 -67 310 -2 4 -31 2 -64 -4
-41 -7 -61 -14 -61 -24 0 -8 14 -62 31 -121 17 -58 32 -110 33 -116 1 -5 7
-26 13 -45 6 -19 21 -69 34 -110 12 -41 23 -76 24 -78 2 -2 30 2 63 8 l60 12
12 47 c7 25 13 53 15 61 2 8 18 67 35 130 17 63 34 124 36 135 2 11 10 43 17
70 8 28 16 57 18 65 5 17 -20 21 -75 10z"/>
<path d="M5519 1181 c-7 -39 -2 -495 6 -501 6 -4 32 -11 58 -14 l49 -7 -4 156
c-1 85 -2 155 -1 155 1 0 7 -17 14 -37 8 -27 109 -262 123 -290 2 -2 75 -13
111 -16 19 -2 19 6 20 246 0 278 5 262 -74 270 l-44 4 5 -161 c2 -88 3 -150 1
-136 -7 44 -24 92 -71 200 -25 58 -47 107 -49 109 -5 7 -143 28 -144 22z m278
-403 c-3 -8 -6 -5 -6 6 -1 11 2 17 5 13 3 -3 4 -12 1 -19z"/>
<path d="M7159 1146 c-4 -3 -76 -14 -104 -15 -6 -1 -10 -93 -10 -257 l0 -255
40 6 c22 3 63 8 90 11 28 3 75 8 105 12 l55 7 1 52 c2 52 1 53 -25 49 -14 -2
-51 -7 -81 -11 l-55 -6 3 200 c2 173 -3 222 -19 207z"/>
<path d="M6040 866 l0 -256 28 -1 c15 -1 44 -2 65 -4 20 -2 38 0 38 3 1 4 2
118 3 255 1 159 -3 247 -9 247 -5 1 -36 3 -67 7 l-58 5 0 -256z"/>
<path d="M6396 1083 c-6 -24 -27 -103 -32 -125 -2 -10 -6 -26 -9 -35 -30 -116
-68 -263 -71 -283 -3 -14 -6 -30 -9 -36 -2 -8 17 -11 60 -11 63 1 64 1 72 31
4 17 7 38 6 47 0 13 12 16 61 17 56 1 61 -1 62 -21 3 -69 6 -72 78 -75 65 -3
66 -2 62 20 -12 62 -97 455 -102 471 -5 14 -18 17 -89 17 -71 0 -84 -3 -89
-17z m90 -139 c4 -27 12 -75 19 -106 l13 -58 -44 0 c-41 0 -44 2 -35 19 6 10
16 60 23 110 7 49 14 89 16 87 1 -2 5 -25 8 -52z"/>
</g>
</svg>
